<svg width="42" height="43" viewBox="0 0 42 43" fill="none" xmlns="http://www.w3.org/2000/svg">
<path d="M21.3625 42C21.0957 42 20.8473 41.8249 20.7582 41.5482L16.0328 26.8687C15.9216 26.5231 16.102 26.149 16.4354 26.0335C16.7726 25.9195 17.1303 26.1058 17.2418 26.4511L21.9672 41.1306C22.0784 41.4765 21.898 41.85 21.5646 41.9658C21.4971 41.9888 21.4294 42 21.3625 42Z" fill="black" stroke="black" stroke-width="0.5"/>
<path d="M34.3308 42H9.6689C9.29889 42 9 41.7762 9 41.5C9 41.2238 9.29889 41 9.6689 41H34.3308C34.7005 41 35 41.2238 35 41.5C35 41.7762 34.7005 42 34.3308 42Z" fill="black" stroke="black" stroke-width="0.5"/>
<path fill-rule="evenodd" clip-rule="evenodd" d="M30 9.00014C30 10.6543 31.3459 12 33.0003 12C34.6541 12 36 10.6543 36 9.00014C36 7.346 34.6541 6 33.0003 6C31.3459 6 30 7.346 30 9.00014ZM31.2353 9.00042C31.2353 8.02735 32.0273 7.23593 33.0003 7.23593C33.9733 7.23593 34.7647 8.02735 34.7647 9.00042C34.7647 9.97321 33.9733 10.7646 33.0003 10.7646C32.0273 10.7646 31.2353 9.97321 31.2353 9.00042Z" fill="black"/>
<path d="M33.0003 11.75C31.484 11.75 30.25 10.5162 30.25 9.00014H29.75C29.75 10.7924 31.2079 12.25 33.0003 12.25V11.75ZM35.75 9.00014C35.75 10.5162 34.516 11.75 33.0003 11.75V12.25C34.7921 12.25 36.25 10.7924 36.25 9.00014H35.75ZM33.0003 6.25C34.516 6.25 35.75 7.48405 35.75 9.00014H36.25C36.25 7.20796 34.7922 5.75 33.0003 5.75V6.25ZM30.25 9.00014C30.25 7.48408 31.484 6.25 33.0003 6.25V5.75C31.2079 5.75 29.75 7.20793 29.75 9.00014H30.25ZM33.0003 6.98593C31.8893 6.98593 30.9853 7.88919 30.9853 9.00042H31.4853C31.4853 8.16552 32.1652 7.48593 33.0003 7.48593V6.98593ZM35.0147 9.00042C35.0147 7.88929 34.1114 6.98593 33.0003 6.98593V7.48593C33.8352 7.48593 34.5147 8.16541 34.5147 9.00042H35.0147ZM33.0003 11.0146C34.1114 11.0146 35.0147 10.1113 35.0147 9.00042H34.5147C34.5147 9.83513 33.8353 10.5146 33.0003 10.5146V11.0146ZM30.9853 9.00042C30.9853 10.1114 31.8893 11.0146 33.0003 11.0146V10.5146C32.1652 10.5146 31.4853 9.83502 31.4853 9.00042H30.9853Z" fill="black"/>
<path fill-rule="evenodd" clip-rule="evenodd" d="M24.3899 24.5954C24.4953 24.8461 24.7375 25 24.995 25C25.0585 25 25.1236 24.9906 25.1868 24.9708L32.5344 22.7024C32.7341 22.6406 32.8928 22.487 32.9621 22.2886C33.0323 22.0903 33.0037 21.87 32.8874 21.6954C29.6649 16.8766 24.3086 14 18.5599 14C16.8363 14 15.1323 14.2568 13.4493 14.7792C13.1614 14.8759 12.9765 15.1594 13.0024 15.4646C13.0271 15.7704 13.2563 16.0183 13.5563 16.0655C18.34 16.8142 22.491 20.0829 24.3899 24.5954ZM25.3576 23.5296C23.5936 19.7543 20.3654 16.8425 16.5183 15.4594C17.1932 15.3724 17.8753 15.3283 18.5593 15.3283C23.571 15.3283 28.2599 17.695 31.2746 21.7024L25.3576 23.5296Z" fill="black"/>
<path d="M24.3899 24.5954L24.6204 24.4985L24.6203 24.4984L24.3899 24.5954ZM25.1868 24.9708L25.1131 24.7319L25.1122 24.7322L25.1868 24.9708ZM32.5344 22.7024L32.6082 22.9413L32.6083 22.9412L32.5344 22.7024ZM32.9621 22.2886L32.7264 22.2053L32.7261 22.2062L32.9621 22.2886ZM32.8874 21.6954L33.0955 21.5568L33.0952 21.5564L32.8874 21.6954ZM13.4493 14.7792L13.3752 14.5403L13.3697 14.5422L13.4493 14.7792ZM13.0024 15.4646L13.2516 15.4445L13.2515 15.4435L13.0024 15.4646ZM13.5563 16.0655L13.5174 16.3124L13.5176 16.3125L13.5563 16.0655ZM16.5183 15.4594L16.4863 15.2115L16.4337 15.6947L16.5183 15.4594ZM25.3576 23.5296L25.1311 23.6354L25.2233 23.8327L25.4313 23.7685L25.3576 23.5296ZM31.2746 21.7024L31.3484 21.9412L31.6882 21.8363L31.4744 21.5521L31.2746 21.7024ZM24.995 24.75C24.8367 24.75 24.6862 24.6551 24.6204 24.4985L24.1595 24.6923C24.3044 25.037 24.6382 25.25 24.995 25.25V24.75ZM25.1122 24.7322C25.0738 24.7442 25.034 24.75 24.995 24.75V25.25C25.0831 25.25 25.1733 25.2369 25.2614 25.2094L25.1122 24.7322ZM32.4607 22.4635L25.1131 24.7319L25.2606 25.2097L32.6082 22.9413L32.4607 22.4635ZM32.7261 22.2062C32.6828 22.3302 32.5839 22.4254 32.4606 22.4636L32.6083 22.9412C32.8844 22.8559 33.1029 22.6438 33.1981 22.3711L32.7261 22.2062ZM32.6793 21.8339C32.7525 21.9439 32.77 22.082 32.7264 22.2053L33.1978 22.372C33.2945 22.0985 33.2548 21.7962 33.0955 21.5568L32.6793 21.8339ZM18.5599 14.25C24.2243 14.25 29.503 17.0842 32.6796 21.8343L33.0952 21.5564C29.8268 16.6689 24.3929 13.75 18.5599 13.75V14.25ZM13.5235 15.0179C15.1825 14.5029 16.8616 14.25 18.5599 14.25V13.75C16.811 13.75 15.082 14.0106 13.3752 14.5404L13.5235 15.0179ZM13.2515 15.4435C13.2352 15.2518 13.3515 15.0758 13.529 15.0161L13.3697 14.5422C12.9713 14.676 12.7178 15.0671 12.7533 15.4857L13.2515 15.4435ZM13.5951 15.8185C13.4103 15.7895 13.2671 15.6362 13.2516 15.4445L12.7532 15.4847C12.7871 15.9045 13.1023 16.2472 13.5174 16.3124L13.5951 15.8185ZM24.6203 24.4984C22.6883 19.9072 18.4655 16.5808 13.5949 15.8185L13.5176 16.3125C18.2146 17.0476 22.2938 20.2586 24.1595 24.6923L24.6203 24.4984ZM16.4337 15.6947C20.2185 17.0554 23.3955 19.9208 25.1311 23.6354L25.5841 23.4238C23.7918 19.5878 20.5123 16.6296 16.6028 15.2242L16.4337 15.6947ZM18.5593 15.0783C17.8646 15.0783 17.1718 15.1231 16.4863 15.2115L16.5502 15.7074C17.2146 15.6217 17.8861 15.5783 18.5593 15.5783V15.0783ZM31.4744 21.5521C28.4131 17.4826 23.6505 15.0783 18.5593 15.0783V15.5783C23.4916 15.5783 28.1068 17.9073 31.0749 21.8527L31.4744 21.5521ZM25.4313 23.7685L31.3484 21.9412L31.2009 21.4635L25.2838 23.2908L25.4313 23.7685Z" fill="black"/>
<path fill-rule="evenodd" clip-rule="evenodd" d="M1.26428 30.8726C1.37776 30.9562 1.51393 31 1.65189 31C1.7155 31 1.7797 30.9908 1.84241 30.9717L10.0739 28.4632C10.4018 28.3635 10.5953 28.0286 10.5189 27.6964C10.2791 26.6575 10.1576 25.5984 10.1576 24.5494C10.1576 21.0439 11.4667 17.69 13.845 15.1065C14.0035 14.9335 14.0361 14.6847 13.9626 14.4614C13.8895 14.2387 13.681 14.0682 13.4496 14.022C13.4406 14.0202 13.3827 14.0092 13.3731 14.0077C13.2764 13.9926 13.1751 13.9997 13.0811 14.0292C12.4558 14.2209 11.8254 14.4563 11.2078 14.729C5.00662 17.4647 1 23.5965 1 30.3502C1 30.5562 1.09795 30.7497 1.26428 30.8726ZM2.32887 29.4646C2.65467 23.684 6.15094 18.5128 11.4458 16.0486C9.76189 18.5491 8.85318 21.4967 8.85348 24.5494C8.85348 25.4972 8.94396 26.4515 9.12343 27.3945L2.32887 29.4646Z" fill="black"/>
<path d="M1.26428 30.8726L1.11568 31.0736L1.11594 31.0738L1.26428 30.8726ZM1.84241 30.9717L1.91508 31.2109L1.91529 31.2109L1.84241 30.9717ZM10.0739 28.4632L10.0012 28.224L10.0011 28.2241L10.0739 28.4632ZM10.5189 27.6964L10.7625 27.6403L10.7625 27.6402L10.5189 27.6964ZM13.845 15.1065L14.0289 15.2758L14.0292 15.2754L13.845 15.1065ZM13.9626 14.4614L13.7251 14.5394L13.7251 14.5395L13.9626 14.4614ZM13.4496 14.022L13.4985 13.7769L13.4985 13.7769L13.4496 14.022ZM13.3731 14.0077L13.3344 14.2547L13.3347 14.2548L13.3731 14.0077ZM13.0811 14.0292L13.1544 14.2682L13.1558 14.2677L13.0811 14.0292ZM11.2078 14.729L11.3087 14.9577L11.3088 14.9577L11.2078 14.729ZM11.4458 16.0486L11.6532 16.1883L12.1553 15.4427L11.3403 15.822L11.4458 16.0486ZM2.32887 29.4646L2.07927 29.4505L2.05911 29.8081L2.40173 29.7037L2.32887 29.4646ZM8.85348 24.5494H9.10348L9.10348 24.5493L8.85348 24.5494ZM9.12343 27.3945L9.19629 27.6337L9.41098 27.5683L9.36903 27.3478L9.12343 27.3945ZM1.65189 30.75C1.56669 30.75 1.48263 30.723 1.41262 30.6714L1.11594 31.0738C1.27289 31.1895 1.46117 31.25 1.65189 31.25V30.75ZM1.76975 30.7325C1.731 30.7443 1.69131 30.75 1.65189 30.75V31.25C1.73969 31.25 1.8284 31.2373 1.91508 31.2109L1.76975 30.7325ZM10.0011 28.2241L1.76954 30.7326L1.91529 31.2109L10.1468 28.7023L10.0011 28.2241ZM10.2753 27.7525C10.3222 27.9564 10.2036 28.1625 10.0012 28.224L10.1467 28.7024C10.6 28.5645 10.8685 28.1008 10.7625 27.6403L10.2753 27.7525ZM9.90756 24.5494C9.90756 25.6176 10.0313 26.6956 10.2753 27.7526L10.7625 27.6402C10.5269 26.6194 10.4076 25.5791 10.4076 24.5494H9.90756ZM13.661 14.9371C11.2404 17.5668 9.90756 20.9811 9.90756 24.5494H10.4076C10.4076 21.1067 11.6931 17.8132 14.0289 15.2758L13.661 14.9371ZM13.7251 14.5395C13.776 14.6943 13.7467 14.8437 13.6607 14.9375L14.0292 15.2754C14.2604 15.0233 14.2961 14.6751 14.2001 14.3833L13.7251 14.5395ZM13.4007 14.2672C13.5527 14.2975 13.6828 14.4108 13.7251 14.5394L14.2001 14.3834C14.0961 14.0667 13.8093 13.8388 13.4985 13.7769L13.4007 14.2672ZM13.3347 14.2548C13.333 14.2545 13.3347 14.2548 13.3427 14.2562C13.3491 14.2574 13.3571 14.2589 13.3653 14.2605C13.3735 14.262 13.3817 14.2635 13.3883 14.2648C13.3916 14.2654 13.3945 14.266 13.3967 14.2664C13.3979 14.2666 13.3988 14.2668 13.3995 14.267C13.3999 14.267 13.4002 14.2671 13.4004 14.2671C13.4005 14.2672 13.4006 14.2672 13.4006 14.2672C13.4007 14.2672 13.4007 14.2672 13.4007 14.2672L13.4985 13.7769C13.4903 13.7752 13.4272 13.7632 13.4116 13.7607L13.3347 14.2548ZM13.1558 14.2677C13.2127 14.2499 13.2751 14.2454 13.3344 14.2547L13.4119 13.7608C13.2776 13.7397 13.1376 13.7495 13.0063 13.7906L13.1558 14.2677ZM11.3088 14.9577C11.9176 14.6889 12.5388 14.4569 13.1544 14.2682L13.0078 13.7902C12.3728 13.9848 11.7331 14.2238 11.1068 14.5003L11.3088 14.9577ZM1.25 30.3502C1.25 23.696 5.19773 17.6536 11.3087 14.9577L11.1069 14.5003C4.81551 17.2757 0.75 23.497 0.75 30.3502H1.25ZM1.41288 30.6716C1.30994 30.5955 1.25 30.4764 1.25 30.3502H0.75C0.75 30.6359 0.885956 30.9038 1.11568 31.0736L1.41288 30.6716ZM11.3403 15.822C5.96207 18.3249 2.41026 23.5778 2.07927 29.4505L2.57847 29.4787C2.89908 23.7903 6.33982 18.7006 11.5513 16.2753L11.3403 15.822ZM9.10348 24.5493C9.10319 21.5466 9.99695 18.6476 11.6532 16.1883L11.2385 15.909C9.52683 18.4506 8.60318 21.4468 8.60348 24.5494L9.10348 24.5493ZM9.36903 27.3478C9.19245 26.42 9.10348 25.4813 9.10348 24.5494H8.60348C8.60348 25.513 8.69547 26.483 8.87784 27.4413L9.36903 27.3478ZM2.40173 29.7037L9.19629 27.6337L9.05057 27.1554L2.25601 29.2254L2.40173 29.7037Z" fill="black"/>
<path d="M9.65488 29C9.37423 29 9.11547 28.8127 9.02881 28.5208C8.92297 28.1631 9.11787 27.7841 9.46358 27.6749L24.1543 23.0297C24.497 22.9205 24.8652 23.1218 24.971 23.4795C25.0772 23.8371 24.8823 24.2158 24.5366 24.325L9.84588 28.9702C9.78261 28.9904 9.71815 29 9.65488 29Z" fill="black" stroke="black" stroke-width="0.5"/>
<path d="M33.4999 4C33.2235 4 33 3.7315 33 3.40005V1.60022C33 1.2685 33.2235 1 33.4999 1C33.7763 1 34 1.2685 34 1.60022V3.40005C34 3.7315 33.7763 4 33.4999 4Z" fill="black" stroke="black" stroke-width="0.5"/>
<path d="M33.4999 16C33.2235 16 33 15.7315 33 15.4003V13.6002C33 13.2691 33.2235 13 33.4999 13C33.7763 13 34 13.2691 34 13.6002V15.4003C34 15.7315 33.7763 16 33.4999 16Z" fill="black" stroke="black" stroke-width="0.5"/>
<path d="M27.7273 14C27.5404 14 27.3545 13.9283 27.2125 13.7858C26.9287 13.5006 26.9293 13.0392 27.2135 12.756L28.7594 11.2131C29.0443 10.9279 29.5044 10.9296 29.7879 11.2145C30.0715 11.4994 30.0705 11.9607 29.7863 12.2443L28.241 13.7868C28.0984 13.9289 27.9125 14 27.7273 14Z" fill="black" stroke="black" stroke-width="0.5"/>
<path d="M36.7273 6C36.5404 6 36.3539 5.92828 36.2119 5.78583C35.9287 5.5006 35.9294 5.03924 36.2136 4.75602L37.7591 3.21313C38.044 2.92757 38.5044 2.92991 38.7879 3.21446C39.0715 3.49902 39.0705 3.96072 38.7863 4.24428L37.2404 5.78683C37.0985 5.92894 36.9126 6 36.7273 6Z" fill="black" stroke="black" stroke-width="0.5"/>
<path d="M38.2727 14C38.0868 14 37.9015 13.9289 37.7592 13.7868L36.2135 12.2438C35.9293 11.9599 35.9289 11.4987 36.2118 11.2138C36.4954 10.9295 36.9559 10.9285 37.2404 11.2124L38.7865 12.7557C39.0707 13.0393 39.0711 13.5005 38.7882 13.7858C38.6459 13.9283 38.4596 14 38.2727 14Z" fill="black" stroke="black" stroke-width="0.5"/>
<path d="M29.2731 6C29.0869 6 28.9013 5.92893 28.7593 5.78679L27.2133 4.24391C26.9294 3.95996 26.9287 3.4985 27.2123 3.21388C27.4962 2.9296 27.9563 2.92826 28.2409 3.21255L29.7863 4.75576C30.0705 5.03937 30.0715 5.5005 29.7879 5.78579C29.646 5.92826 29.4594 6 29.2731 6Z" fill="black" stroke="black" stroke-width="0.5"/>
<path d="M28.3334 9H25.6666C25.298 9 25 8.77605 25 8.49989C25 8.22395 25.298 8 25.6666 8H28.3334C28.702 8 29 8.22395 29 8.49989C29 8.77605 28.702 9 28.3334 9Z" fill="black" stroke="black" stroke-width="0.5"/>
<path d="M40.3334 9H37.6663C37.2977 9 37 8.77605 37 8.49989C37 8.22395 37.2977 8 37.6663 8H40.3334C40.7017 8 41 8.22395 41 8.49989C41 8.77605 40.7017 9 40.3334 9Z" fill="black" stroke="black" stroke-width="0.5"/>
</svg>
