<svg width="41" height="41" viewBox="0 0 41 41" fill="none" xmlns="http://www.w3.org/2000/svg">
<path d="M37.5 4C37.7764 4 38 3.66419 38 3.25V1.75C38 1.33581 37.7764 1 37.5 1C37.2236 1 37 1.33581 37 1.75V3.25C37 3.66419 37.2236 4 37.5 4Z" fill="black"/>
<path d="M37.5 5C37.2236 5 37 5.33581 37 5.75V7.25C37 7.66419 37.2236 8 37.5 8C37.7764 8 38 7.66419 38 7.25V5.75C38 5.33581 37.7764 5 37.5 5Z" fill="black"/>
<path d="M34.75 5H36.25C36.6646 5 37 4.77613 37 4.5C37 4.22387 36.6646 4 36.25 4H34.75C34.3354 4 34 4.22387 34 4.5C34 4.77613 34.3354 5 34.75 5Z" fill="black"/>
<path d="M40.25 4H38.75C38.3354 4 38 4.22387 38 4.5C38 4.77613 38.3354 5 38.75 5H40.25C40.6646 5 41 4.77613 41 4.5C41 4.22387 40.6646 4 40.25 4Z" fill="black"/>
<path fill-rule="evenodd" clip-rule="evenodd" d="M8 2.5C8 3.87839 6.87839 5 5.5 5C4.12161 5 3 3.87839 3 2.5C3 1.12161 4.12161 0 5.5 0C6.87839 0 8 1.12161 8 2.5ZM6.57143 2.5C6.57143 1.90911 6.09089 1.42857 5.5 1.42857C4.90911 1.42857 4.42857 1.90911 4.42857 2.5C4.42857 3.09089 4.90911 3.57143 5.5 3.57143C6.09089 3.57143 6.57143 3.09089 6.57143 2.5Z" fill="black"/>
<path d="M0.499942 8C0.223781 8 0 8.2239 0 8.50006C0 8.77622 0.223898 9 0.499942 9C0.775985 9 1 8.7761 1 8.50006C1 8.22401 0.776102 8 0.499942 8Z" fill="black"/>
<path d="M39.4999 11C39.2238 11 39 11.2239 39 11.5001C39 11.7762 39.2239 12 39.4999 12C39.776 12 40 11.7761 40 11.5001C40 11.224 39.7761 11 39.4999 11Z" fill="black"/>
<path fill-rule="evenodd" clip-rule="evenodd" d="M19 5C9.07476 5 1 13.0746 1 23C1 32.9254 9.07476 41 19 41C28.9252 41 37 32.9254 37 23C37 13.0746 28.9252 5 19 5ZM32.2026 12.8456L31.3503 19.1496L26.8685 20.6437L24.2143 18.8741C23.894 18.6611 23.4648 18.7476 23.2528 19.0664C23.0402 19.385 23.1263 19.8155 23.4451 20.0278L25.9544 21.7009L23.6463 29.3953L15.3427 29.2487L12.8788 21.8563L18.9799 17.0507L21.5121 18.7389C21.831 18.9516 22.2609 18.8646 22.4735 18.5467C22.6862 18.2281 22.6001 17.7976 22.2813 17.5852L19.6394 15.8238V10.5562L25.6755 7.77039C25.6819 7.76738 25.6871 7.76287 25.6922 7.75837C25.6968 7.75433 25.7014 7.75029 25.707 7.74734C28.2768 8.88198 30.5072 10.6465 32.2026 12.8456ZM27.0713 32.8254L33.0796 31.9012C34.5713 29.5499 35.4945 26.8042 35.6444 23.8563L31.8185 20.4555L27.3268 21.9527L24.9239 29.9621L27.0713 32.8254ZM32.7161 19.3981L33.3689 14.5708C34.6654 16.7726 35.4709 19.2957 35.6328 21.9907L32.7161 19.3981ZM4.841 31.7776L11.7688 32.663L14.0632 29.7945L11.5211 22.1682L6.07806 20.4504L2.35319 23.7618C2.48579 26.6936 3.37982 29.4289 4.841 31.7776ZM5.17501 19.3981L2.3752 21.887C2.54715 19.2931 3.315 16.8609 4.54304 14.7238L5.17501 19.3981ZM18.9459 9.34859L23.8903 7.06666C22.3432 6.59086 20.7012 6.33328 19.0002 6.33328C17.2748 6.33328 15.6098 6.59692 14.0434 7.0859L18.9459 9.34859ZM12.2294 7.77611L18.2524 10.556V15.8581L11.9255 20.8417L6.53981 19.1419L5.7047 12.9635C7.39693 10.7275 9.64017 8.93242 12.2294 7.77611ZM11.4478 34.0199L5.92258 33.3135C8.00098 35.9433 10.8511 37.9355 14.1312 38.9396L11.4478 34.0199ZM15.9525 39.3826L12.797 33.5973L15.1687 30.6327L23.8082 30.7853L25.9438 33.633L22.9074 39.1996C21.6532 39.5022 20.3457 39.6667 18.9998 39.6667C17.9588 39.6667 16.9412 39.5662 15.9525 39.3826ZM27.2101 34.2069L24.8014 38.6234C27.623 37.5722 30.0841 35.7771 31.9479 33.4782L27.2101 34.2069Z" fill="black"/>
</svg>
