<svg width="41" height="41" viewBox="0 0 41 41" fill="none" xmlns="http://www.w3.org/2000/svg">
<path d="M0.999883 0C0.447562 0 0 0.447848 0 1C0 1.55215 0.447796 2 0.999883 2C1.55197 2 2 1.55215 2 1C2 0.447848 1.5522 0 0.999883 0Z" fill="black"/>
<path d="M13.5 3C13.7764 3 14 2.66419 14 2.25V0.75C14 0.335813 13.7764 0 13.5 0C13.2236 0 13 0.335813 13 0.75V2.25C13 2.66419 13.2236 3 13.5 3Z" fill="black"/>
<path d="M13.5 4C13.2236 4 13 4.33581 13 4.75V6.25C13 6.66419 13.2236 7 13.5 7C13.7764 7 14 6.66419 14 6.25V4.75C14 4.33581 13.7764 4 13.5 4Z" fill="black"/>
<path d="M10.75 4H12.25C12.6646 4 13 3.77613 13 3.5C13 3.22387 12.6646 3 12.25 3H10.75C10.3354 3 10 3.22387 10 3.5C10 3.77613 10.3354 4 10.75 4Z" fill="black"/>
<path d="M14.75 4H16.25C16.6646 4 17 3.77613 17 3.5C17 3.22387 16.6646 3 16.25 3H14.75C14.3354 3 14 3.22387 14 3.5C14 3.77613 14.3354 4 14.75 4Z" fill="black"/>
<path fill-rule="evenodd" clip-rule="evenodd" d="M29 14.5C29 15.8784 27.8784 17 26.5 17C25.1216 17 24 15.8784 24 14.5C24 13.1216 25.1216 12 26.5 12C27.8784 12 29 13.1216 29 14.5ZM27.5714 14.5C27.5714 13.9091 27.0909 13.4286 26.5 13.4286C25.9093 13.4286 25.4286 13.9091 25.4286 14.5C25.4286 15.0909 25.9091 15.5714 26.5 15.5714C27.0909 15.5714 27.5714 15.0909 27.5714 14.5Z" fill="black"/>
<path d="M27.0001 4C27.5524 4 28 3.5522 28 2.99988C28 2.44756 27.5522 2 27.0001 2C26.448 2 26 2.4478 26 2.99988C26 3.55197 26.448 4 27.0001 4Z" fill="black"/>
<path fill-rule="evenodd" clip-rule="evenodd" d="M40.9109 31.5683C40.91 31.5652 40.9109 31.5619 40.91 31.5588L40.9094 31.5576L40.9088 31.5566L40.9082 31.5558L40.9076 31.5545C40.9063 31.5506 40.9061 31.5466 40.905 31.5429C40.7698 31.1247 40.4955 30.7586 40.1323 30.5126L39.2621 29.9226C38.5756 29.4576 37.7748 29.1622 36.9471 29.0686L31.2546 28.4255C30.7236 28.3656 30.2201 28.2013 29.7586 27.9373L18.6005 21.5577C17.7469 21.0695 16.7941 20.8935 15.9209 21.0627C14.4415 21.3479 13.2529 22.4787 12.8933 23.9434C12.6394 24.9748 11.738 25.6952 10.7013 25.6952H9.81214C9.29137 25.6952 8.7769 25.5151 8.36465 25.1878C7.34385 24.378 6.20748 23.9499 5.07667 23.9499H2.74079C2.33132 23.9499 2 24.2772 2 24.6808V32.9661C2 33.8283 2.22872 34.6781 2.65226 35.4347C2.653 35.4366 2.65391 35.4382 2.65481 35.4399L2.65481 35.4399L2.65615 35.4424C2.66276 35.4541 2.66836 35.4663 2.67395 35.4784C2.68012 35.4918 2.68627 35.5051 2.69375 35.5179C3.11766 36.2449 3.71603 36.8519 4.42348 37.2732C4.89721 37.5557 5.32057 37.7583 5.70393 37.8911V38.8074C5.70393 40.0165 6.70084 41 7.92629 41C8.49743 41 9.01376 40.7804 9.40786 40.4298C9.80196 40.7804 10.3183 41 10.8894 41C12.1149 41 13.1118 40.0165 13.1118 38.8074V38.0766H27.1867V38.8074C27.1867 40.0165 28.1836 41 29.4091 41C29.9802 41 30.4966 40.7804 30.8907 40.4298C31.2848 40.7804 31.8011 41 32.3722 41C33.5977 41 34.5946 40.0165 34.5946 38.8074V37.8504C35.2676 37.6971 35.9228 37.4683 36.5406 37.1648C36.5919 37.1398 36.6397 37.1091 36.6832 37.0735C37.5462 36.3684 40.3959 33.982 40.8544 32.8831C41.0276 32.468 41.0461 32.0017 40.9109 31.5683ZM31.0868 29.8781L36.7786 30.5212C37.3668 30.5875 37.9353 30.7975 38.423 31.1275L38.9058 31.4547C37.7296 31.9572 36.6001 32.7101 35.4809 33.7408C34.6859 34.1868 33.7881 34.4223 32.8802 34.4223H24.5997L28.2938 28.7895L29.0157 29.2022C29.6543 29.5676 30.351 29.7949 31.0868 29.8781ZM20.1876 34.2199L23.9965 28.4573C23.5384 28.4025 23.0826 28.3433 22.6318 28.2764L18.601 34.4223H19.9883L19.9924 34.4163C20.0452 34.3361 20.113 34.2718 20.1876 34.2199ZM25.6583 28.6199L25.6748 28.6212L25.6749 28.6212C25.9817 28.646 26.287 28.6706 26.5948 28.6882L22.8344 34.4223H21.8231L25.6583 28.6199ZM17.8575 22.8224C17.3133 22.5116 16.7239 22.3971 16.2051 22.4974C15.2777 22.6762 14.56 23.3621 14.333 24.2878C14.3047 24.4023 14.2644 24.5104 14.224 24.6186L14.1976 24.6897C14.2441 24.7871 14.3213 24.8933 14.4834 24.9415C17.3159 25.7857 21.289 26.7573 25.3894 27.1288L17.8575 22.8224ZM3.48157 25.4116H5.07667C6.07358 25.4116 6.90974 25.9095 7.4357 26.327C8.11074 26.8624 8.95487 27.1571 9.81214 27.1571H10.7013C11.7519 27.1571 12.7134 26.7144 13.4011 25.9886C13.5939 26.1414 13.8092 26.268 14.0552 26.3413C15.9694 26.9117 18.3993 27.5384 21.0397 28.0126L16.8357 34.4223H3.79455C3.59139 33.963 3.48157 33.4675 3.48157 32.9659V25.4116ZM7.1855 38.8074C7.1855 39.2103 7.51756 39.5383 7.92629 39.5383C8.33502 39.5383 8.66707 39.2103 8.66707 38.8074V38.0766H7.1855V38.8074ZM11.6302 38.8074C11.6302 39.2103 11.2982 39.5383 10.8894 39.5383C10.4807 39.5383 10.1486 39.2103 10.1486 38.8074V38.0766H11.6302V38.8074ZM28.6683 38.8074C28.6683 39.2103 29.0004 39.5383 29.4091 39.5383C29.8178 39.5383 30.1499 39.2103 30.1499 38.8074V38.0766H28.6683V38.8074ZM33.113 38.8074C33.113 39.2103 32.781 39.5383 32.3722 39.5383C31.9635 39.5383 31.6314 39.2103 31.6314 38.8074V38.0766H32.6109C32.7219 38.0766 32.8327 38.0681 32.9434 38.0596L32.9435 38.0596C33 38.0553 33.0565 38.0509 33.113 38.0477V38.8074ZM32.6109 36.6149C33.7112 36.6149 34.8137 36.3655 35.8048 35.893C36.9175 34.9794 38.1272 33.887 38.8511 33.121C38.0367 33.5522 37.2355 34.1168 36.4336 34.8627C36.3938 34.9001 36.3497 34.933 36.3019 34.9608C35.2622 35.5646 34.0788 35.884 32.88 35.884H4.98852C5.00686 35.8969 5.02504 35.9101 5.04322 35.9232C5.09094 35.9577 5.13861 35.9921 5.1889 36.0222C6.08673 36.5571 6.51342 36.6149 6.65528 36.6149H32.6109Z" fill="black"/>
<path d="M6.76923 33H15.2308C15.656 33 16 32.7761 16 32.5C16 32.2239 15.656 32 15.2308 32H6.76923C6.34404 32 6 32.2239 6 32.5C6 32.7761 6.34404 33 6.76923 33Z" fill="black"/>
</svg>
