<svg width="41" height="41" viewBox="0 0 41 41" fill="none" xmlns="http://www.w3.org/2000/svg">
<path fill-rule="evenodd" clip-rule="evenodd" d="M28.9152 31.1525L40.8414 16.1835C41.0945 15.8661 41.0387 15.4063 40.7165 15.1567C40.3953 14.9067 39.9284 14.9617 39.6754 15.2799L30.357 26.9758C28.9714 26.2519 23.6457 23.5614 17.7176 21.7438C16.5812 19.7072 14.385 18.3232 11.8665 18.3232C10.1781 18.3232 8.63865 18.9499 7.46182 19.9731C4.43864 20.0053 2.01916 20.7359 0.272003 22.1461C0.0999384 22.2851 0 22.4929 0 22.7123C0 22.7692 0.00296663 24.1221 0.241966 25.978C0.678617 29.3649 1.82021 33.8107 4.78036 35.7567C4.86769 35.8141 4.96651 35.8527 5.06979 35.8695L10.239 36.7192L10.5631 40.3329C10.5968 40.7103 10.9176 41 11.3018 41H12.4317C12.8158 41 13.1368 40.7103 13.1704 40.3329L13.447 37.2468L19.2538 38.2012C19.6105 38.2597 19.9684 38.2885 20.3242 38.2885C22.4372 38.2885 24.4779 37.2801 25.7255 35.5573L26.9778 33.8282L26.9784 33.8273L28.9152 31.1525ZM29.4249 28.1456L28.6447 29.125C26.1679 28.2312 22.5429 27.0623 18.4165 26.1609C18.4964 25.7545 18.5413 25.3361 18.5413 24.907C18.5413 24.4211 18.4838 23.9488 18.382 23.4927C23.4483 25.1567 27.8848 27.3518 29.4249 28.1456ZM11.8665 30.0275C14.7291 30.0275 17.0581 27.7303 17.0581 24.9069C17.0581 22.0834 14.7291 19.7862 11.8665 19.7862C9.00391 19.7862 6.67492 22.0834 6.67492 24.9069C6.67492 27.7303 9.00391 30.0275 11.8665 30.0275ZM6.16058 21.5082C5.57022 22.4687 5.22053 23.5861 5.19791 24.7838C3.9662 24.8224 2.77603 24.9224 1.63035 25.0722C1.5382 24.1845 1.50315 23.4663 1.49055 23.0651C2.68573 22.2024 4.25508 21.6849 6.16058 21.5082ZM1.81892 26.5226C2.21589 29.062 3.17763 32.831 5.47659 34.4533L10.1038 35.2137L9.73871 31.1414C7.51633 30.4013 5.812 28.5412 5.32992 26.2415C4.1149 26.2768 2.94401 26.3752 1.81892 26.5226ZM11.2561 31.4599C11.4575 31.4781 11.6603 31.4905 11.8663 31.4905C12.0723 31.4905 12.2754 31.4781 12.4765 31.4599L11.8663 38.2656L11.2561 31.4599ZM13.5779 35.7854L19.4978 36.7583C21.415 37.0729 23.3874 36.2682 24.5179 34.7073L25.1583 33.8231C23.752 33.4272 21.141 32.703 19.1029 32.2002C18.7057 32.1022 18.4641 31.7052 18.5633 31.3129C18.6634 30.9212 19.0682 30.6829 19.463 30.7807C21.8031 31.3577 24.8817 32.2216 26.0734 32.5596L27.6835 30.3363C25.2449 29.4733 21.8207 28.3947 17.9702 27.5606C17.2167 29.2398 15.7727 30.5492 13.9943 31.1416L13.5779 35.7854Z" fill="black"/>
<path d="M28.5 8C28.7761 8 29 7.66419 29 7.25V5.75C29 5.33581 28.7761 5 28.5 5C28.2239 5 28 5.33581 28 5.75V7.25C28 7.66419 28.2239 8 28.5 8Z" fill="black"/>
<path d="M28.5 10C28.2239 10 28 10.3358 28 10.75V12.25C28 12.6642 28.2239 13 28.5 13C28.7761 13 29 12.6642 29 12.25V10.75C29 10.3358 28.776 10 28.5 10Z" fill="black"/>
<path d="M25.75 9H27.25C27.6642 9 28 8.77613 28 8.5C28 8.22387 27.6642 8 27.25 8H25.75C25.3358 8 25 8.22387 25 8.5C25 8.77613 25.3358 9 25.75 9Z" fill="black"/>
<path d="M30.75 9H32.25C32.6642 9 33 8.77613 33 8.5C33 8.22387 32.6642 8 32.25 8H30.75C30.3358 8 30 8.22387 30 8.5C30 8.77613 30.3358 9 30.75 9Z" fill="black"/>
<path fill-rule="evenodd" clip-rule="evenodd" d="M6 2.5C6 3.87839 4.87839 5 3.5 5C2.12161 5 1 3.87839 1 2.5C1 1.12161 2.12161 0 3.5 0C4.87839 0 6 1.12161 6 2.5ZM4.57143 2.5C4.57143 1.90911 4.09089 1.42857 3.5 1.42857C2.90911 1.42857 2.42857 1.90911 2.42857 2.5C2.42857 3.09089 2.90911 3.57143 3.5 3.57143C4.09089 3.57143 4.57143 3.09089 4.57143 2.5Z" fill="black"/>
<path d="M11.9999 11C12.5522 11 13 10.5522 13 10.0001C13 9.44803 12.5522 9 11.9999 9C11.4476 9 11 9.4478 11 10.0001C11 10.5524 11.4476 11 11.9999 11Z" fill="black"/>
<path d="M35.9999 2C36.5522 2 37 1.5522 37 1.00012C37 0.44803 36.5522 0 35.9999 0C35.4476 0 35 0.447796 35 1.00012C35 1.55244 35.4476 2 35.9999 2Z" fill="black"/>
<circle cx="14.5" cy="23.5" r="0.5" fill="black"/>
<circle cx="11.5" cy="21.5" r="0.5" fill="black"/>
<circle cx="14.5" cy="26.5" r="0.5" fill="black"/>
<circle cx="11.5" cy="25.5" r="0.5" fill="black"/>
<circle cx="8.5" cy="23.5" r="0.5" fill="black"/>
</svg>
