<svg width="39" height="41" viewBox="0 0 39 41" fill="none" xmlns="http://www.w3.org/2000/svg">
<path d="M4.5 3C4.77637 3 5 2.66419 5 2.25V0.75C5 0.335813 4.77637 0 4.5 0C4.22363 0 4 0.335813 4 0.75V2.25C4 2.66419 4.22363 3 4.5 3Z" fill="black"/>
<path d="M4.5 4C4.22363 4 4 4.33581 4 4.75V6.25C4 6.66419 4.22363 7 4.5 7C4.77637 7 5 6.66419 5 6.25V4.75C5 4.33581 4.77625 4 4.5 4Z" fill="black"/>
<path d="M1.75 4H3.25C3.66456 4 4 3.77613 4 3.5C4 3.22387 3.66456 3 3.25 3H1.75C1.33544 3 1 3.22387 1 3.5C1 3.77613 1.33544 4 1.75 4Z" fill="black"/>
<path d="M5.75 4H7.25C7.66456 4 8 3.77613 8 3.5C8 3.22387 7.66456 3 7.25 3H5.75C5.33544 3 5 3.22387 5 3.5C5 3.77613 5.33544 4 5.75 4Z" fill="black"/>
<path fill-rule="evenodd" clip-rule="evenodd" d="M34 38.5C34 37.1216 35.1216 36 36.5 36C37.8782 36 39 37.1216 39 38.5C39 39.8784 37.8784 41 36.5 41C35.1216 41 34 39.8784 34 38.5ZM35.4286 38.5C35.4286 39.0909 35.9091 39.5714 36.5 39.5714C37.0907 39.5714 37.5714 39.0909 37.5714 38.5C37.5714 37.9091 37.0909 37.4286 36.5 37.4286C35.9091 37.4286 35.4286 37.9091 35.4286 38.5Z" fill="black"/>
<path d="M37.9999 32C38.5522 32 39 31.5522 39 31.0001C39 30.448 38.5522 30 37.9999 30C37.4476 30 37 30.4478 37 31.0001C37 31.5524 37.4476 32 37.9999 32Z" fill="black"/>
<path d="M14.9999 5C15.5522 5 16 4.5522 16 4.00012C16 3.44803 15.5522 3 14.9999 3C14.4476 3 14 3.4478 14 4.00012C14 4.55244 14.4476 5 14.9999 5Z" fill="black"/>
<path fill-rule="evenodd" clip-rule="evenodd" d="M34.0917 6.90819C31.5481 4.36428 27.4079 4.36359 24.8629 6.90819L20.82 10.9514L0.396425 20.48C0.108616 20.6145 -0.049713 20.9288 0.0139965 21.2404C2.23971 32.1169 8.88266 38.7606 19.7595 40.9859C19.8051 40.9957 19.8513 41 19.897 41C20.1599 41 20.4048 40.8487 20.5195 40.6035L30.0488 20.1794L34.0917 16.1365C36.6361 13.5922 36.6361 9.45245 34.0917 6.90819ZM19.5053 39.5276C14.8068 38.4906 11.0204 36.6119 8.09084 33.8802L22.098 19.8733C22.3662 19.6051 22.3662 19.1703 22.098 18.9021C21.8298 18.6338 21.395 18.6338 21.1267 18.9021L7.11975 32.9087C4.38831 29.9789 2.50965 26.1926 1.47244 21.4939L21.0752 12.3484L22.3678 13.641L4.76988 23.9145C4.44189 24.106 4.33181 24.5265 4.52294 24.8544C4.65036 25.073 4.88047 25.1947 5.11659 25.1947C5.23405 25.1947 5.3534 25.1645 5.4621 25.1011L23.372 14.6454L26.3545 17.6279L18.0556 31.8435C17.8645 32.1712 17.9744 32.5917 18.3026 32.7834C18.4113 32.8467 18.5306 32.877 18.6481 32.877C18.8842 32.877 19.1143 32.7552 19.2417 32.5366L27.3589 18.6323L28.6515 19.9249L19.5053 39.5276ZM22.1918 11.5224L29.4773 18.808L33.1204 15.1652C35.1287 13.1564 35.1287 9.88795 33.1204 7.87929C31.1119 5.87098 27.8439 5.87098 25.8342 7.87929L22.1918 11.5224Z" fill="black"/>
<path d="M29.3207 7C28.1413 7 27.0328 7.37458 26.1989 8.05449C25.9337 8.27079 25.9337 8.62141 26.1989 8.83771C26.3316 8.94586 26.5055 9 26.6792 9C26.8529 9 27.0268 8.94586 27.1594 8.83771C27.7365 8.36717 28.5041 8.1078 29.3207 8.1078C29.6962 8.1078 30 7.85979 30 7.5539C30 7.24801 29.696 7 29.3207 7Z" fill="black"/>
</svg>
