<svg width="36" height="36" viewBox="0 0 36 36" fill="none" xmlns="http://www.w3.org/2000/svg">
<path fill-rule="evenodd" clip-rule="evenodd" d="M32.9401 10.8418C33.2256 8.21795 32.4848 5.85605 30.8535 4.1909C29.2228 2.52606 26.9105 1.77077 24.3388 2.06068C21.8198 2.34637 19.348 3.61092 17.3792 5.62125C13.8162 9.25863 12.8783 14.3915 14.8748 17.9049L0.589158 32.4897C-0.196386 33.2917 -0.196386 34.5967 0.589158 35.3986C0.981548 35.7995 1.49765 36 2.01314 36C2.52924 36 3.04534 35.7997 3.43834 35.3986L17.8121 20.7236C18.9099 21.2836 20.1476 21.5599 21.4367 21.5599C24.1666 21.5599 27.1235 20.3253 29.4524 17.9472C31.4216 15.937 32.6605 13.4139 32.9401 10.8418ZM31.7244 10.7041C31.5477 12.3285 30.9289 13.9334 29.9557 15.3772L26.5575 14.8815L26.0541 11.2978L27.3296 11.4713C27.3571 11.4749 27.3839 11.4767 27.4108 11.4767C27.7131 11.4767 27.9752 11.2487 28.0165 10.9346C28.0613 10.5928 27.826 10.2787 27.4908 10.2333L25.8735 10.0133L25.5218 7.50684L31.6566 8.41419C31.7841 9.13639 31.8115 9.90386 31.7244 10.7041ZM22.2396 10.7789L22.7373 14.3243L25.2955 14.6975L24.7939 11.1263L22.2396 10.7789ZM25.4762 15.9851L25.913 19.0956C25.1377 19.5218 24.3391 19.8375 23.5398 20.0404L22.9181 15.612L25.4762 15.9851ZM18.138 10.9698C18.4712 10.9193 18.7825 11.1583 18.8302 11.4995L19.1526 13.8013L21.4754 14.1401L20.9794 10.6073L15.9236 9.91963C15.4431 11.0062 15.1616 12.1223 15.086 13.2082L17.8904 13.6173L17.6188 11.6763C17.5711 11.3348 17.8034 11.0185 18.138 10.9698ZM16.8429 18.4947C15.7904 17.4201 15.2152 16.0084 15.0866 14.4698L18.0705 14.9051L18.7541 19.7905C18.0462 19.4893 17.3978 19.0612 16.8429 18.4947ZM23.7125 3.42608C22.8988 3.5911 22.0967 3.87211 21.3236 4.25506L21.5199 5.65278L24.0784 6.03121L23.7125 3.42608ZM20.2573 5.46607L19.5454 5.36069C19.7528 5.20285 19.9652 5.05626 20.1799 4.91497L20.2573 5.46607ZM24.6135 9.84189L24.2593 7.32012L21.7007 6.94169L22.0591 9.49452L24.6135 9.84189ZM25.3998 3.2492C27.2151 3.2492 28.8207 3.88194 29.9886 5.07406C30.5538 5.65091 30.9825 6.33705 31.2829 7.09687L25.3408 6.21793L24.9276 3.27621C24.9788 3.27321 25.0304 3.2693 25.0819 3.26539C25.1887 3.25729 25.2955 3.2492 25.3998 3.2492ZM18.2788 6.47177C18.2671 6.4824 18.2555 6.49304 18.2443 6.50441C17.5632 7.19991 16.988 7.95474 16.5216 8.74094L20.7988 9.32279L20.4383 6.75482L18.312 6.4404C18.3012 6.45128 18.29 6.46152 18.2788 6.47177ZM4.55908 32.4884L2.48856 32.317L3.73439 31.0451L5.80491 31.2166L4.55908 32.4884ZM5.98199 28.7504L4.86951 29.8861L6.94003 30.0577L7.10105 29.8933L5.98199 28.7504ZM1.45422 34.5156C1.17652 34.2318 1.16291 33.7941 1.38571 33.4784L3.42397 33.6472L2.57359 34.5153C2.26545 34.8313 1.7625 34.8301 1.45422 34.5156ZM6.8469 27.8672L7.96596 29.0102L16.7472 20.0451C16.4793 19.8411 16.2191 19.6239 15.978 19.3777C15.8643 19.2616 15.7622 19.1376 15.6602 19.0135L15.5957 18.9354L6.8469 27.8672ZM20.0328 20.1819C20.0325 20.1724 20.0337 20.1633 20.0349 20.1542C20.0364 20.1426 20.0379 20.1311 20.0363 20.1189L19.3324 15.089L21.6559 15.4279L22.3351 20.2657C21.5444 20.3534 20.7686 20.3269 20.0328 20.1819ZM26.7384 16.1692L27.0492 18.3821C27.5845 17.9972 28.1017 17.5605 28.5878 17.0644C28.7631 16.8856 28.9264 16.6992 29.0885 16.512L26.7384 16.1692Z" fill="black"/>
<path d="M32.5 26C32.2236 26 32 26.3358 32 26.75V28.25C32 28.6642 32.2236 29 32.5 29C32.7764 29 33 28.6642 33 28.25V26.75C33 26.3358 32.7764 26 32.5 26Z" fill="black"/>
<path d="M32.5 30C32.2236 30 32 30.3358 32 30.75V32.25C32 32.6642 32.2236 33 32.5 33C32.7764 33 33 32.6642 33 32.25V30.75C33 30.3358 32.7764 30 32.5 30Z" fill="black"/>
<path d="M31.25 29H29.75C29.3354 29 29 29.2239 29 29.5C29 29.7761 29.3354 30 29.75 30H31.25C31.6646 30 32 29.7761 32 29.5C32 29.2239 31.6646 29 31.25 29Z" fill="black"/>
<path d="M35.25 29H33.75C33.3354 29 33 29.2239 33 29.5C33 29.7761 33.3354 30 33.75 30H35.25C35.6646 30 36 29.7761 36 29.5C36 29.2239 35.6646 29 35.25 29Z" fill="black"/>
<path fill-rule="evenodd" clip-rule="evenodd" d="M16 31.5C16 30.1216 17.1216 29 18.5 29C19.8782 29 21 30.1216 21 31.5C21 32.8784 19.8784 34 18.5 34C17.1216 34 16 32.8784 16 31.5ZM17.4286 31.5C17.4286 32.0909 17.9091 32.5714 18.5 32.5714C19.0907 32.5714 19.5714 32.0909 19.5714 31.5C19.5714 30.9091 19.0909 30.4286 18.5 30.4286C17.9091 30.4286 17.4286 30.9091 17.4286 31.5Z" fill="black"/>
<path d="M25.4999 26C25.2239 26 25 26.2239 25 26.5001C25 26.7762 25.2239 27 25.4999 27C25.7761 27 26 26.7761 26 26.5001C26 26.224 25.7761 26 25.4999 26Z" fill="black"/>
<path d="M4 14.5001C4 14.7762 4.2239 15 4.49994 15C4.7761 15 5 14.7761 5 14.5001C5 14.224 4.7761 14 4.49994 14C4.2239 14 4 14.2239 4 14.5001Z" fill="black"/>
<path fill-rule="evenodd" clip-rule="evenodd" d="M12 4.50014C12 6.98133 9.98126 9 7.49972 9C5.01874 9 3 6.98133 3 4.50014C3 4.39826 3.00666 4.29893 3.01389 4.19903C3.18167 1.8441 5.14443 0.00949397 7.4837 0.000850206L7.49972 0C9.98126 0 12 2.01867 12 4.50014ZM7.48583 1.13446C5.73832 1.14084 4.27039 2.51307 4.14583 4.25882C4.14539 4.26499 4.14496 4.27106 4.14454 4.27704C4.13847 4.36244 4.13363 4.43049 4.1335 4.50014C4.1335 6.35643 5.64352 7.86639 7.49958 7.86639C9.3562 7.86639 10.8662 6.35643 10.8662 4.50014C10.8662 2.64882 9.36399 1.14197 7.5146 1.13361C7.50468 1.13418 7.49419 1.13446 7.48583 1.13446Z" fill="black"/>
<path d="M5.64814 7C5.66079 7 5.67344 6.99958 5.68609 6.99875C7.08506 6.89463 8.33075 5.81965 8.9364 4.19262C9.09097 3.77779 8.95408 3.28029 8.63098 3.08183C8.30658 2.88295 7.92006 3.05913 7.76548 3.47438C7.36372 4.55351 6.53829 5.26634 5.61132 5.33527C5.25335 5.36214 4.9802 5.75593 5.00113 6.21512C5.02091 6.65785 5.3072 7 5.64814 7Z" fill="black"/>
</svg>
