<svg width="41" height="42" viewBox="0 0 41 42" fill="none" xmlns="http://www.w3.org/2000/svg">
<path d="M37.5 4C37.7764 4 38 3.66419 38 3.25V1.75C38 1.33581 37.7764 1 37.5 1C37.2236 1 37 1.33581 37 1.75V3.25C37 3.66419 37.2236 4 37.5 4Z" fill="black"/>
<path d="M37.5 5C37.2236 5 37 5.33581 37 5.75V7.25C37 7.66419 37.2236 8 37.5 8C37.7764 8 38 7.66419 38 7.25V5.75C38 5.33581 37.7764 5 37.5 5V5Z" fill="black"/>
<path d="M34.75 5H36.25C36.6646 5 37 4.77613 37 4.5C37 4.22387 36.6646 4 36.25 4H34.75C34.3354 4 34 4.22387 34 4.5C34 4.77613 34.3354 5 34.75 5Z" fill="black"/>
<path d="M40.25 4H38.75C38.3354 4 38 4.22387 38 4.5C38 4.77613 38.3354 5 38.75 5H40.25C40.6646 5 41 4.77613 41 4.5C41 4.22387 40.6646 4 40.25 4Z" fill="black"/>
<path fill-rule="evenodd" clip-rule="evenodd" d="M8 2.5C8 3.87839 6.87839 5 5.5 5C4.12161 5 3 3.87839 3 2.5C3 1.12161 4.12161 0 5.5 0C6.87839 0 8 1.12161 8 2.5ZM6.57143 2.5C6.57143 1.90911 6.09089 1.42857 5.5 1.42857C4.90929 1.42857 4.42857 1.90911 4.42857 2.5C4.42857 3.09089 4.90911 3.57143 5.5 3.57143C6.09089 3.57143 6.57143 3.09089 6.57143 2.5Z" fill="black"/>
<path d="M0.499942 8C0.223898 8 0 8.2239 0 8.50006C0 8.77622 0.223898 9 0.499942 9C0.776102 9 1 8.7761 1 8.50006C1 8.22401 0.776219 8 0.499942 8Z" fill="black"/>
<path d="M39.4999 11C39.2239 11 39 11.2239 39 11.5001C39 11.7762 39.2239 12 39.4999 12C39.7761 12 40 11.7761 40 11.5001C40 11.224 39.7762 11 39.4999 11Z" fill="black"/>
<path fill-rule="evenodd" clip-rule="evenodd" d="M33.2789 15.7474C32.7706 14.7869 32.127 13.9083 31.3468 13.1412C26.8287 8.69818 19.1607 9.00499 14.255 13.8295C12.3923 15.6612 11.1347 17.9427 10.6187 20.4278C10.0335 23.2414 10.471 26.049 11.8294 28.3932L3.19689 35.8265C2.45251 36.4819 2.02799 37.3836 2.0014 38.3649C1.9741 39.3463 2.34786 40.2691 3.0541 40.9636C3.73619 41.6343 4.63508 42 5.59487 42C5.62899 42 5.66259 41.9997 5.69671 41.9986C6.69465 41.9718 7.61121 41.5543 8.28315 40.8173L15.8325 32.3378C17.519 33.2837 19.4407 33.7764 21.4364 33.7764C22.2614 33.7764 23.0994 33.6931 23.9367 33.5246C26.4651 33.0161 28.785 31.7793 30.6463 29.9484C31.6512 28.9609 32.4745 27.8388 33.1127 26.6186C33.5155 26.7068 33.9297 26.7569 34.3525 26.7569C35.861 26.7569 37.28 26.1789 38.3477 25.1293C40.5508 22.9632 40.5508 19.4381 38.3477 17.2716C36.9718 15.919 35.0584 15.4115 33.2789 15.7474ZM7.23605 39.9045C6.82868 40.3512 6.26821 40.6062 5.65839 40.6224C5.04805 40.6408 4.47585 40.414 4.04381 39.9902C3.61248 39.5657 3.3836 39.0021 3.40057 38.4024C3.41702 37.8029 3.67669 37.2519 4.12518 36.8569L13.0207 29.1971C13.2879 28.9672 13.6209 28.8537 13.9537 28.8537C14.3173 28.8537 14.6802 28.9901 14.9551 29.2599C15.4808 29.7765 15.5088 30.6119 15.0193 31.1619L7.23605 39.9045ZM15.9448 28.2867C16.7335 29.0617 16.9573 30.1974 16.6019 31.1782C18.2999 32.1105 20.2701 32.5147 22.3029 32.3547L11.8079 22.034C11.6453 24.0318 12.0563 25.9707 13.0041 27.6409C14.0018 27.2916 15.1567 27.5113 15.9448 28.2867ZM29.6566 28.975C28.0782 30.5274 26.1324 31.595 24.0135 32.0904L12.077 20.3519C12.5804 18.2692 13.6662 16.3557 15.2449 14.8027C19.6052 10.516 26.3837 10.2074 30.3571 14.1144C30.9823 14.7296 31.5064 15.4273 31.9321 16.1864C31.3627 16.4514 30.8272 16.8091 30.3571 17.2716C29.2893 18.3213 28.7015 19.7163 28.7015 21.2005C28.7015 22.6846 29.2893 24.08 30.3571 25.1293C30.7812 25.5465 31.2626 25.8855 31.7814 26.1471C31.2222 27.1785 30.5147 28.1315 29.6566 28.975ZM34.3523 25.3801C35.4871 25.3801 36.5546 24.9453 37.3578 24.1558C39.0148 22.5261 39.0148 19.8744 37.3578 18.2447C36.5288 17.4299 35.4405 17.0226 34.3523 17.0226C33.2634 17.0226 32.1751 17.4301 31.3468 18.2447C30.5436 19.0342 30.1014 20.0842 30.1014 21.2003C30.1014 22.3167 30.5436 23.3664 31.3468 24.1558C32.1492 24.9453 33.217 25.3801 34.3523 25.3801Z" fill="black"/>
<path d="M27.5741 18.4203L25.1146 17.0885C24.734 16.8818 24.2717 17.0498 24.0815 17.4615C23.8913 17.8736 24.0453 18.3743 24.4259 18.5802L26.8853 19.912C26.9958 19.9719 27.1132 20 27.2289 20C27.5117 20 27.7831 19.8314 27.9184 19.5391C28.1088 19.1272 27.9546 18.6265 27.5741 18.4203Z" fill="black"/>
<path d="M26.3333 21H23.6667C23.2982 21 23 21.2239 23 21.5C23 21.7761 23.2982 22 23.6667 22H26.3333C26.7018 22 27 21.7761 27 21.5C27 21.2239 26.7018 21 26.3333 21Z" fill="black"/>
</svg>
