<svg width="37" height="41" viewBox="0 0 37 41" fill="none" xmlns="http://www.w3.org/2000/svg">
<path d="M3 3C3.55275 3 4 2.66419 4 2.25V0.75C4 0.335813 3.55275 0 3 0C2.44725 0 2 0.335813 2 0.75V2.25C2 2.66419 2.44725 3 3 3Z" fill="black"/>
<path d="M3 4C2.44725 4 2 4.33581 2 4.75V6.25C2 6.66419 2.44725 7 3 7C3.55275 7 4 6.66419 4 6.25V4.75C4 4.33581 3.5525 4 3 4Z" fill="black"/>
<path d="M2.25 4C2.66456 4 3 3.55225 3 3C3 2.44775 2.66456 2 2.25 2H0.75C0.335438 2 0 2.44775 0 3C0 3.55225 0.335438 4 0.75 4H2.25Z" fill="black"/>
<path d="M4.75 4H6.25C6.66456 4 7 3.55225 7 3C7 2.44775 6.66456 2 6.25 2H4.75C4.33544 2 4 2.44775 4 3C4 3.55225 4.33544 4 4.75 4Z" fill="black"/>
<path fill-rule="evenodd" clip-rule="evenodd" d="M32 38.5C32 37.1216 33.1216 36 34.5 36C35.8782 36 37 37.1216 37 38.5C37 39.8784 35.8784 41 34.5 41C33.1216 41 32 39.8784 32 38.5ZM33.4286 38.5C33.4286 39.0909 33.9091 39.5714 34.5 39.5714C35.0907 39.5714 35.5714 39.0909 35.5714 38.5C35.5714 37.9091 35.0909 37.4286 34.5 37.4286C33.9091 37.4286 33.4286 37.9091 33.4286 38.5Z" fill="black"/>
<path d="M35.9999 31C35.4478 31 35 31.4478 35 32.0001C35 32.5524 35.4478 33 35.9999 33C36.5522 33 37 32.5522 37 32.0001C37 31.448 36.5522 31 35.9999 31Z" fill="black"/>
<path d="M11.9999 4C12.5522 4 13 3.5522 13 3.00012C13 2.44803 12.5522 2 11.9999 2C11.4478 2 11 2.4478 11 3.00012C11 3.55244 11.4476 4 11.9999 4Z" fill="black"/>
<path fill-rule="evenodd" clip-rule="evenodd" d="M35.2297 15.7485C35.4981 16.017 35.4981 16.4521 35.2297 16.7206L32.2422 19.708C32.108 19.8423 31.932 19.9095 31.7562 19.9095C31.5804 19.9095 31.4044 19.8423 31.2702 19.708L27.5739 16.0117L13.0115 30.5745L16.7079 34.2708C16.9763 34.5393 16.9763 34.9744 16.7079 35.2429L13.7205 38.2304C13.5916 38.3592 13.417 38.4318 13.2344 38.4318C13.0519 38.4318 12.8773 38.3592 12.7484 38.2304L11.8156 37.2975L9.31382 39.7986C9.1796 39.9328 9.00362 40 8.82781 40C8.65199 40 8.47601 39.9328 8.34179 39.7986L6.06448 37.5214L4.1608 39.4255C4.0319 39.5544 3.85729 39.6269 3.67478 39.6269C3.49227 39.6269 3.31766 39.5544 3.18876 39.4255L0.201333 36.438C-0.067111 36.1696 -0.067111 35.7344 0.201333 35.466L2.10502 33.5623L0.536974 31.9942C0.40808 31.8653 0.335555 31.6904 0.335555 31.5082C0.335555 31.326 0.40808 31.1511 0.536974 31.0222L3.0389 28.5206L1.39627 26.8779C1.12783 26.6095 1.12783 26.1743 1.39627 25.9059L4.3837 22.9184C4.64149 22.6606 5.09795 22.6606 5.35573 22.9184L9.05208 26.6148L23.6144 12.0522L19.9181 8.35578C19.6496 8.08734 19.6496 7.65219 19.9181 7.38374L22.9055 4.39628C23.1739 4.12784 23.6091 4.12784 23.8775 4.39628L25.52 6.03876L28.0217 3.53732C28.2902 3.26888 28.7253 3.26888 28.9938 3.53732L30.5615 5.10504L32.4652 3.20133C32.7336 2.93289 33.1687 2.93289 33.4372 3.20133L36.4248 6.18879C36.6932 6.45724 36.6932 6.89239 36.4248 7.16084L34.5213 9.06454L36.7986 11.3419C36.9275 11.4708 37 11.6457 37 11.8279C37 12.0101 36.9275 12.185 36.7986 12.3139L34.2968 14.8157L35.2297 15.7485ZM34.9666 6.67499L32.9512 4.65957L31.5335 6.07725L33.5491 8.09267L34.9666 6.67499ZM28.5077 4.99556L35.3405 11.8281L33.3248 13.8438L26.492 7.01097L28.5077 4.99556ZM19.1364 18.4746L17.1473 20.4636L16.9385 24.7032L18.9276 22.7142L19.1364 18.4746ZM15.4903 26.1515L13.5013 28.1404L13.7102 23.9006L15.6993 21.9116L15.4903 26.1515ZM22.5736 15.0374L20.5845 17.0263L20.3757 21.266L22.3648 19.277L22.5736 15.0374ZM12.2619 25.349L12.0531 29.5888L12.0395 29.6024L10.0239 27.5868L12.2619 25.349ZM1.65939 35.9518L3.67478 37.9672L5.09245 36.5492L3.07705 34.5341L1.65939 35.9518ZM8.82781 38.3405L1.99503 31.508L4.01076 29.4924L10.8434 36.3253L8.82781 38.3405ZM2.8545 26.3919L13.2344 36.7723L15.2498 34.7569L4.86989 24.3765L2.8545 26.3919ZM23.8129 17.8286L24.0217 13.5891L24.5866 13.0242L26.602 15.0396L23.8129 17.8286ZM23.3917 5.85435L21.3763 7.86976L31.7562 18.2498L33.7716 16.2344L23.3917 5.85435Z" fill="black"/>
</svg>
