<svg width="27" height="39" viewBox="0 0 27 39" fill="none" xmlns="http://www.w3.org/2000/svg">
<path fill-rule="evenodd" clip-rule="evenodd" d="M7.07143 0H19.9286C23.8321 0.00465627 26.9954 3.20309 27 7.15V29.25C26.994 34.6323 22.6803 38.9939 17.3571 39H9.64286C4.31975 38.9939 0.00602262 34.6323 0 29.25V7.15C0.00460511 3.20309 3.1679 0.00465627 7.07143 0ZM1.28571 29.25C1.29103 33.9146 5.02954 37.6946 9.64286 37.7H17.3571C21.9705 37.6946 25.709 33.9146 25.7143 29.25V16.9H16.0714V17.55C16.0714 18.9859 14.9202 20.15 13.5 20.15C12.0798 20.15 10.9286 18.9859 10.9286 17.55V16.9H1.28571V29.25ZM14.7857 17.55C14.7857 18.268 14.2101 18.85 13.5 18.85C12.7899 18.85 12.2143 18.268 12.2143 17.55V14.95C12.2143 14.232 12.7899 13.65 13.5 13.65C14.2101 13.65 14.7857 14.232 14.7857 14.95V17.55ZM16.0714 15.6H25.7143V7.15C25.7107 3.92062 23.1225 1.30358 19.9286 1.3H7.07143C3.87754 1.30358 1.28926 3.92062 1.28571 7.15V15.6H10.9286V14.95C10.9286 13.5141 12.0798 12.35 13.5 12.35C14.9202 12.35 16.0714 13.5141 16.0714 14.95V15.6Z" fill="#1E1E1E"/>
<path d="M23.3529 27C22.9956 27 22.7059 27.2686 22.7059 27.6V29.4C22.7023 32.381 20.0971 34.7967 16.8824 34.8H13.6471C13.2897 34.8 13 35.0686 13 35.4C13 35.7314 13.2897 36 13.6471 36H16.8824C20.8114 35.9957 23.9954 33.0433 24 29.4V27.6C24 27.2686 23.7103 27 23.3529 27Z" fill="#1E1E1E"/>
<path d="M3.33333 18H2.66667C2.29848 18 2 18.4477 2 19C2 19.5523 2.29848 20 2.66667 20H3.33333C3.70152 20 4 19.5523 4 19C4 18.4477 3.70152 18 3.33333 18Z" fill="#1E1E1E"/>
<path d="M8.4 18H6.6C6.26863 18 6 18.4477 6 19C6 19.5523 6.26863 20 6.6 20H8.4C8.73137 20 9 19.5523 9 19C9 18.4477 8.73137 18 8.4 18Z" fill="#1E1E1E"/>
<path d="M24 23C23.4477 23 23 23.3358 23 23.75V25.25C23 25.6642 23.4477 26 24 26C24.5523 26 25 25.6642 25 25.25V23.75C25 23.3358 24.5523 23 24 23Z" fill="#1E1E1E"/>
<path d="M13.9432 2.17611C13.6984 1.9413 13.3016 1.9413 13.0568 2.17611L11.176 3.98062C10.9384 4.21664 10.9418 4.5918 11.1836 4.82382C11.4254 5.05584 11.8165 5.0591 12.0625 4.83115L13.5 3.4519L14.9375 4.83115C15.1835 5.0591 15.5746 5.05584 15.8164 4.82382C16.0582 4.5918 16.0616 4.21664 15.824 3.98062L13.9432 2.17611Z" fill="#1E1E1E"/>
<path d="M13.9432 5.17611C13.6984 4.9413 13.3016 4.9413 13.0568 5.17611L11.176 6.98062C10.9384 7.21664 10.9418 7.5918 11.1836 7.82382C11.4254 8.05584 11.8165 8.0591 12.0625 7.83115L13.5 6.4519L14.9375 7.83115C15.1835 8.0591 15.5746 8.05584 15.8164 7.82382C16.0582 7.5918 16.0616 7.21664 15.824 6.98062L13.9432 5.17611Z" fill="#1E1E1E"/>
<path d="M13.9432 9.17611C13.6984 8.9413 13.3016 8.9413 13.0568 9.17611L11.176 10.9806C10.9384 11.2166 10.9418 11.5918 11.1836 11.8238C11.4254 12.0558 11.8165 12.0591 12.0625 11.8312L13.5 10.4519L14.9375 11.8312C15.1835 12.0591 15.5746 12.0558 15.8164 11.8238C16.0582 11.5918 16.0616 11.2166 15.824 10.9806L13.9432 9.17611Z" fill="#1E1E1E"/>
<path d="M13.9432 29.8239L15.824 28.0194C16.0616 27.7834 16.0582 27.4082 15.8164 27.1762C15.5746 26.9442 15.1835 26.9409 14.9375 27.1688L13.5 28.5481L12.0625 27.1688C11.8165 26.9409 11.4254 26.9442 11.1836 27.1762C10.9418 27.4082 10.9384 27.7834 11.176 28.0194L13.0568 29.8239C13.3016 30.0587 13.6984 30.0587 13.9432 29.8239Z" fill="#1E1E1E"/>
<path d="M13.0568 26.8239C13.3016 27.0587 13.6984 27.0587 13.9432 26.8239L15.824 25.0194C16.0616 24.7834 16.0582 24.4082 15.8164 24.1762C15.5746 23.9442 15.1835 23.9409 14.9375 24.1688L13.5 25.5481L12.0625 24.1688C11.8165 23.9409 11.4254 23.9442 11.1836 24.1762C10.9418 24.4082 10.9384 24.7834 11.176 25.0194L13.0568 26.8239Z" fill="#1E1E1E"/>
<path d="M13.0568 23.8239C13.3016 24.0587 13.6984 24.0587 13.9432 23.8239L15.824 22.0194C16.0616 21.7834 16.0582 21.4082 15.8164 21.1762C15.5746 20.9442 15.1835 20.9409 14.9375 21.1688L13.5 22.5481L12.0625 21.1688C11.8165 20.9409 11.4254 20.9442 11.1836 21.1762C10.9418 21.4082 10.9384 21.7834 11.176 22.0194L13.0568 23.8239Z" fill="#1E1E1E"/>
</svg>
